<svg width="27" height="45" viewBox="0 0 27 45" fill="none" xmlns="http://www.w3.org/2000/svg"> <g opacity="0.69" filter="url(#filter0_f_1_3)"> <path d="M21.5227 14.8182V20.9545H4.68182V14.8182H21.5227ZM8.19318 41V13.4886C8.19318 11.4659 8.57386 9.78977 9.33523 8.46023C10.0966 7.11932 11.1534 6.11932 12.5057 5.46023C13.858 4.78977 15.4205 4.45454 17.1932 4.45454C18.3523 4.45454 19.4432 4.54545 20.4659 4.72727C21.5 4.89773 22.267 5.05114 22.767 5.1875L21.4375 11.2898C21.1307 11.1875 20.7557 11.1023 20.3125 11.0341C19.8807 10.9659 19.4716 10.9318 19.0852 10.9318C18.108 10.9318 17.4375 11.1477 17.0739 11.5795C16.7102 12.0114 16.5284 12.6023 16.5284 13.3523V41H8.19318Z" fill="#B9DDFF"/> </g> <defs> <filter id="filter0_f_1_3" x="0.681818" y="0.454544" width="26.0852" height="44.5455" filterUnits="userSpaceOnUse" color-interpolation-filters="sRGB"> <feFlood flood-opacity="0" result="BackgroundImageFix"/> <feBlend mode="normal" in="SourceGraphic" in2="BackgroundImageFix" result="shape"/> <feGaussianBlur stdDeviation="2" result="effect1_foregroundBlur_1_3"/> </filter> </defs> </svg>